<svg width="12" height="11" viewBox="0 0 12 11" fill="none" xmlns="http://www.w3.org/2000/svg">
<path d="M11.5605 7.95178C10.8977 7.86808 10.0116 6.98919 9.9279 6.31957C9.9 6.07543 9.67674 5.88013 9.43255 5.88013C9.18837 5.88013 8.97209 6.07543 8.93721 6.31957C8.85348 6.98222 7.97441 7.86808 7.30465 7.95178C7.06046 7.97968 6.86511 8.20289 6.86511 8.44703C6.86511 8.69116 7.06046 8.90739 7.30465 8.94227C7.96744 9.02597 8.85348 9.90486 8.93721 10.5745C8.96511 10.8186 9.18837 11.0139 9.43255 11.0139C9.67674 11.0139 9.89302 10.8186 9.9279 10.5745C10.0116 9.91183 10.8907 9.02597 11.5605 8.94227C11.8046 8.91437 12 8.69116 12 8.44703C12 8.20289 11.8046 7.98666 11.5605 7.95178Z" fill="#202021"/>
<path d="M9.89303 2.15538L8.68605 0.955631L9.37675 0.272055C9.72558 -0.0697337 10.1023 -0.0976348 10.4023 0.209277L10.6326 0.439461C10.9465 0.753348 10.9256 1.13001 10.5767 1.4718L9.88605 2.1484L9.89303 2.15538ZM1.86279 10.163L0.28605 10.7698C0.125585 10.8396 -0.05581 10.6443 0.0139574 10.4838L0.662795 8.96324L8.1 1.54155L9.29303 2.7413L1.86279 10.163Z" fill="#202021"/>
</svg>
