<svg width="12" height="13" viewBox="0 0 12 13" fill="none" xmlns="http://www.w3.org/2000/svg">
<g clip-path="url(#clip0_644_3806)">
<path d="M11.3657 3.3454C10.7631 3.26999 9.95753 2.47818 9.88141 1.87491C9.85604 1.65496 9.65306 1.479 9.43105 1.479C9.20905 1.479 9.01241 1.65496 8.9807 1.87491C8.90458 2.4719 8.10535 3.26999 7.49642 3.3454C7.27441 3.37053 7.0968 3.57163 7.0968 3.79157C7.0968 4.01152 7.27441 4.20633 7.49642 4.23775C8.09901 4.31316 8.90458 5.10496 8.9807 5.70824C9.00607 5.92818 9.20905 6.10414 9.43105 6.10414C9.65306 6.10414 9.8497 5.92818 9.88141 5.70824C9.95753 5.11124 10.7568 4.31316 11.3657 4.23775C11.5877 4.21261 11.7653 4.01152 11.7653 3.79157C11.7653 3.57163 11.5877 3.37682 11.3657 3.3454Z" fill="#202021"/>
<path d="M8.92995 8.21557C9.25345 7.80082 9.48814 7.34836 9.6594 6.83934C9.5706 6.8582 9.48814 6.87077 9.38665 6.86448C9.12659 6.8582 8.87921 6.75765 8.66988 6.62568C8.16244 8.03962 6.79868 9.05765 5.20022 9.05765C3.16409 9.05765 1.50855 7.41749 1.50855 5.40027C1.50855 3.38306 3.15775 1.74918 5.19388 1.74918C5.98042 1.74918 6.70353 1.99426 7.29978 2.40902C7.31881 2.40902 7.33149 2.40273 7.35052 2.39645C7.5535 2.36503 7.97215 1.96284 8.06095 1.72404C7.26806 1.11448 6.2722 0.75 5.19388 0.75C2.6059 0.75 0.5 2.83634 0.5 5.40027C0.5 7.96421 2.6059 10.0505 5.19388 10.0505C6.21511 10.0505 7.15389 9.72377 7.9214 9.17705L10.8138 12.0489C10.947 12.1809 11.1247 12.25 11.3149 12.25C11.7146 12.25 11.9937 11.9546 11.9937 11.565C11.9937 11.3765 11.9239 11.2068 11.797 11.0874L8.91726 8.22186L8.92995 8.21557Z" fill="#202021"/>
</g>
<defs>
<clipPath id="clip0_644_3806">
<rect width="11.5" height="11.5" fill="white" transform="translate(0.5 0.75)"/>
</clipPath>
</defs>
</svg>
